<?xml version="1.0" encoding="UTF-8"?>
<!-- Generated by Pixelmator Pro 3.7 -->
<svg width="495" height="480" viewBox="0 0 495 480" xmlns="http://www.w3.org/2000/svg">
    <g id="Group">
        <linearGradient id="linearGradient1" x1="39" y1="24" x2="471" y2="456" gradientUnits="userSpaceOnUse">
            <stop offset="1e-05" stop-color="#22d3ee" stop-opacity="1"/>
            <stop offset="0.5" stop-color="#5bbaff" stop-opacity="1"/>
            <stop offset="1" stop-color="#8b5cf6" stop-opacity="1"/>
        </linearGradient>
        <path id="Path" fill="none" stroke="url(#linearGradient1)" stroke-width="48" stroke-linecap="round" d="M 471 240 C 471 359.293488 374.293488 456 255 456 C 135.706482 456 39 359.293488 39 240 C 39 120.706512 135.706482 24 255 24 C 374.293488 24 471 120.706512 471 240 Z"/>
    </g>
    <g id="g1">
        <linearGradient id="linearGradient2" x1="393" y1="102" x2="117" y2="378" gradientUnits="userSpaceOnUse">
            <stop offset="1e-05" stop-color="#f472b6" stop-opacity="1"/>
            <stop offset="1" stop-color="#22d3ee" stop-opacity="1"/>
        </linearGradient>
        <path id="path1" fill="none" stroke="url(#linearGradient2)" stroke-width="24" stroke-linecap="round" stroke-dasharray="90 42" stroke-dashoffset="0" d="M 393 240 C 393 316.215332 331.215332 378 255 378 C 178.784698 378 117 316.215332 117 240 C 117 163.784729 178.784698 102 255 102 C 331.215332 102 393 163.784729 393 240 Z"/>
    </g>
    <g id="g2">
        <linearGradient id="linearGradient3" x1="225" y1="276" x2="63" y2="372" gradientUnits="userSpaceOnUse">
            <stop offset="1e-05" stop-color="#f472b6" stop-opacity="1"/>
            <stop offset="1" stop-color="#22d3ee" stop-opacity="1"/>
        </linearGradient>
        <path id="path2" fill="none" stroke="url(#linearGradient3)" stroke-width="30" stroke-linecap="round" stroke-linejoin="round" d="M 63 372 C 123 348 177 312 225 276"/>
        <linearGradient id="linearGradient4" x1="75" y1="360" x2="15" y2="420" gradientUnits="userSpaceOnUse">
            <stop offset="1e-05" stop-color="#f472b6" stop-opacity="1"/>
            <stop offset="1" stop-color="#22d3ee" stop-opacity="1"/>
        </linearGradient>
        <linearGradient id="linearGradient5" x1="75" y1="360" x2="15" y2="420" gradientUnits="userSpaceOnUse">
            <stop offset="1e-05" stop-color="#f472b6" stop-opacity="1"/>
            <stop offset="1" stop-color="#22d3ee" stop-opacity="1"/>
        </linearGradient>
        <path id="path3" fill="url(#linearGradient4)" stroke="url(#linearGradient5)" stroke-width="30" stroke-linecap="round" stroke-linejoin="round" d="M 75 390 C 75 406.568542 61.568539 420 45 420 C 28.431461 420 15 406.568542 15 390 C 15 373.431458 28.431461 360 45 360 C 61.568539 360 75 373.431458 75 390 Z"/>
        <linearGradient id="linearGradient6" x1="225" y1="108" x2="63" y2="216" gradientUnits="userSpaceOnUse">
            <stop offset="1e-05" stop-color="#f472b6" stop-opacity="1"/>
            <stop offset="1" stop-color="#22d3ee" stop-opacity="1"/>
        </linearGradient>
        <path id="path4" fill="none" stroke="url(#linearGradient6)" stroke-width="30" stroke-linecap="round" stroke-linejoin="round" d="M 63 108 C 129 150 186 192 225 216"/>
        <linearGradient id="linearGradient7" x1="75" y1="60" x2="15" y2="120" gradientUnits="userSpaceOnUse">
            <stop offset="1e-05" stop-color="#f472b6" stop-opacity="1"/>
            <stop offset="1" stop-color="#22d3ee" stop-opacity="1"/>
        </linearGradient>
        <linearGradient id="linearGradient8" x1="75" y1="60" x2="15" y2="120" gradientUnits="userSpaceOnUse">
            <stop offset="1e-05" stop-color="#f472b6" stop-opacity="1"/>
            <stop offset="1" stop-color="#22d3ee" stop-opacity="1"/>
        </linearGradient>
        <path id="path5" fill="url(#linearGradient7)" stroke="url(#linearGradient8)" stroke-width="30" stroke-linecap="round" stroke-linejoin="round" d="M 75 90 C 75 106.568573 61.568539 120 45 120 C 28.431461 120 15 106.568573 15 90 C 15 73.431427 28.431461 60 45 60 C 61.568539 60 75 73.431427 75 90 Z"/>
    </g>
    <path id="path6" fill="#0b1020" stroke="none" opacity="0.9" d="M 309 240 C 309 269.823395 284.823395 294 255 294 C 225.176636 294 201 269.823395 201 240 C 201 210.176605 225.176636 186 255 186 C 284.823395 186 309 210.176605 309 240 Z"/>
    <g id="g3">
        <linearGradient id="linearGradient9" x1="267" y1="72" x2="459" y2="228" gradientUnits="userSpaceOnUse">
            <stop offset="1e-05" stop-color="#22d3ee" stop-opacity="1"/>
            <stop offset="0.5" stop-color="#5bbaff" stop-opacity="1"/>
            <stop offset="1" stop-color="#8b5cf6" stop-opacity="1"/>
        </linearGradient>
        <path id="path7" fill="none" stroke="url(#linearGradient9)" stroke-width="42" stroke-linecap="round" d="M 267 228 L 459 72"/>
    </g>
    <linearGradient id="linearGradient10" x1="135" y1="11.599554" x2="375" y2="48" gradientUnits="userSpaceOnUse">
        <stop offset="1e-05" stop-color="#22d3ee" stop-opacity="1"/>
        <stop offset="0.5" stop-color="#5bbaff" stop-opacity="1"/>
        <stop offset="1" stop-color="#8b5cf6" stop-opacity="1"/>
    </linearGradient>
    <path id="path8" fill="none" stroke="url(#linearGradient10)" stroke-width="18" stroke-linecap="round" opacity="0.55" d="M 135 48 C 207.638916 -0.533936 302.361053 -0.533936 375 48"/>
    <path id="path9" fill="none" stroke="none" d="M -129 -144 L 639 -144 L 639 624 L -129 624 Z"/>
</svg>
