<?xml version="1.0" encoding="UTF-8"?>
<!-- Generated by Pixelmator Pro 3.7 -->
<svg width="165" height="160" viewBox="0 0 165 160" xmlns="http://www.w3.org/2000/svg">
    <g id="Group">
        <linearGradient id="linearGradient1" x1="13" y1="8" x2="157" y2="152" gradientUnits="userSpaceOnUse">
            <stop offset="1e-05" stop-color="#22d3ee" stop-opacity="1"/>
            <stop offset="0.5" stop-color="#5bbaff" stop-opacity="1"/>
            <stop offset="1" stop-color="#8b5cf6" stop-opacity="1"/>
        </linearGradient>
        <path id="Path" fill="none" stroke="url(#linearGradient1)" stroke-width="16" stroke-linecap="round" d="M 157 80 C 157 119.764496 124.764496 152 85 152 C 45.235497 152 13 119.764496 13 80 C 13 40.235504 45.235497 8 85 8 C 124.764496 8 157 40.235504 157 80 Z"/>
    </g>
    <g id="g1">
        <linearGradient id="linearGradient2" x1="131" y1="34" x2="39" y2="126" gradientUnits="userSpaceOnUse">
            <stop offset="1e-05" stop-color="#f472b6" stop-opacity="1"/>
            <stop offset="1" stop-color="#22d3ee" stop-opacity="1"/>
        </linearGradient>
        <path id="path1" fill="none" stroke="url(#linearGradient2)" stroke-width="8" stroke-linecap="round" stroke-dasharray="30 14" stroke-dashoffset="0" d="M 131 80 C 131 105.405106 110.405106 126 85 126 C 59.594902 126 39 105.405106 39 80 C 39 54.59491 59.594902 34 85 34 C 110.405106 34 131 54.59491 131 80 Z"/>
    </g>
    <g id="g2">
        <linearGradient id="linearGradient3" x1="75" y1="92" x2="21" y2="124" gradientUnits="userSpaceOnUse">
            <stop offset="1e-05" stop-color="#f472b6" stop-opacity="1"/>
            <stop offset="1" stop-color="#22d3ee" stop-opacity="1"/>
        </linearGradient>
        <path id="path2" fill="none" stroke="url(#linearGradient3)" stroke-width="10" stroke-linecap="round" stroke-linejoin="round" d="M 21 124 C 41 116 59 104 75 92"/>
        <linearGradient id="linearGradient4" x1="25" y1="120" x2="5" y2="140" gradientUnits="userSpaceOnUse">
            <stop offset="1e-05" stop-color="#f472b6" stop-opacity="1"/>
            <stop offset="1" stop-color="#22d3ee" stop-opacity="1"/>
        </linearGradient>
        <linearGradient id="linearGradient5" x1="25" y1="120" x2="5" y2="140" gradientUnits="userSpaceOnUse">
            <stop offset="1e-05" stop-color="#f472b6" stop-opacity="1"/>
            <stop offset="1" stop-color="#22d3ee" stop-opacity="1"/>
        </linearGradient>
        <path id="path3" fill="url(#linearGradient4)" stroke="url(#linearGradient5)" stroke-width="10" stroke-linecap="round" stroke-linejoin="round" d="M 25 130 C 25 135.522842 20.522846 140 15 140 C 9.477154 140 5 135.522842 5 130 C 5 124.477158 9.477154 120 15 120 C 20.522846 120 25 124.477158 25 130 Z"/>
        <linearGradient id="linearGradient6" x1="75" y1="36" x2="21" y2="72" gradientUnits="userSpaceOnUse">
            <stop offset="1e-05" stop-color="#f472b6" stop-opacity="1"/>
            <stop offset="1" stop-color="#22d3ee" stop-opacity="1"/>
        </linearGradient>
        <path id="path4" fill="none" stroke="url(#linearGradient6)" stroke-width="10" stroke-linecap="round" stroke-linejoin="round" d="M 21 36 C 43 50 62 64 75 72"/>
        <linearGradient id="linearGradient7" x1="25" y1="20" x2="5" y2="40" gradientUnits="userSpaceOnUse">
            <stop offset="1e-05" stop-color="#f472b6" stop-opacity="1"/>
            <stop offset="1" stop-color="#22d3ee" stop-opacity="1"/>
        </linearGradient>
        <linearGradient id="linearGradient8" x1="25" y1="20" x2="5" y2="40" gradientUnits="userSpaceOnUse">
            <stop offset="1e-05" stop-color="#f472b6" stop-opacity="1"/>
            <stop offset="1" stop-color="#22d3ee" stop-opacity="1"/>
        </linearGradient>
        <path id="path5" fill="url(#linearGradient7)" stroke="url(#linearGradient8)" stroke-width="10" stroke-linecap="round" stroke-linejoin="round" d="M 25 30 C 25 35.522858 20.522846 40 15 40 C 9.477154 40 5 35.522858 5 30 C 5 24.477142 9.477154 20 15 20 C 20.522846 20 25 24.477142 25 30 Z"/>
    </g>
    <path id="path6" fill="#0b1020" stroke="none" opacity="0.9" d="M 103 80 C 103 89.941132 94.941132 98 85 98 C 75.058876 98 67 89.941132 67 80 C 67 70.058868 75.058876 62 85 62 C 94.941132 62 103 70.058868 103 80 Z"/>
    <g id="g3">
        <linearGradient id="linearGradient9" x1="89" y1="24" x2="153" y2="76" gradientUnits="userSpaceOnUse">
            <stop offset="1e-05" stop-color="#22d3ee" stop-opacity="1"/>
            <stop offset="0.5" stop-color="#5bbaff" stop-opacity="1"/>
            <stop offset="1" stop-color="#8b5cf6" stop-opacity="1"/>
        </linearGradient>
        <path id="path7" fill="none" stroke="url(#linearGradient9)" stroke-width="14" stroke-linecap="round" d="M 89 76 L 153 24"/>
    </g>
    <linearGradient id="linearGradient10" x1="45" y1="3.866518" x2="125" y2="16" gradientUnits="userSpaceOnUse">
        <stop offset="1e-05" stop-color="#22d3ee" stop-opacity="1"/>
        <stop offset="0.5" stop-color="#5bbaff" stop-opacity="1"/>
        <stop offset="1" stop-color="#8b5cf6" stop-opacity="1"/>
    </linearGradient>
    <path id="path8" fill="none" stroke="url(#linearGradient10)" stroke-width="6" stroke-linecap="round" opacity="0.55" d="M 45 16 C 69.212975 -0.177979 100.787018 -0.177979 125 16"/>
    <path id="path9" fill="none" stroke="none" d="M -43 -48 L 213 -48 L 213 208 L -43 208 Z"/>
</svg>
